<svg xmlns="http://www.w3.org/2000/svg" xmlns:xlink="http://www.w3.org/1999/xlink" width="164" height="42" viewBox="0 0 164 42">
    <defs>
        <path id="a" d="M0 42h38V0H0z"/>
    </defs>
    <g fill="none" fill-rule="evenodd">
        <path fill="#FFF" d="M57.744 26.232c-.203.117-.44.232-.712.344a9.465 9.465 0 0 1-1.776.528 4.53 4.53 0 0 1-.856.088c-.853 0-1.621-.115-2.304-.344a4.459 4.459 0 0 1-1.744-1.056c-.48-.475-.85-1.075-1.112-1.8-.261-.725-.392-1.59-.392-2.592 0-1.045.152-1.936.456-2.672.304-.736.71-1.336 1.216-1.8a4.639 4.639 0 0 1 1.728-1.008 6.403 6.403 0 0 1 1.976-.312c.704 0 1.299.045 1.784.136.485.09.91.227 1.272.408a19.583 19.583 0 0 1-.144 2.088 17.8 17.8 0 0 1-.096.664h-.416l-.832-2.304c-.117-.064-.315-.107-.592-.128a10.64 10.64 0 0 0-.816-.032c-.533 0-1.04.099-1.52.296-.48.197-.899.501-1.256.912-.357.41-.643.928-.856 1.552-.213.624-.32 1.357-.32 2.2 0 .757.104 1.44.312 2.048.208.608.496 1.128.864 1.56.368.432.8.765 1.296 1a3.712 3.712 0 0 0 1.608.352c.213 0 .421-.021.624-.064a4.71 4.71 0 0 0 .56-.152c.17-.059.312-.12.424-.184.112-.064.19-.117.232-.16v-3.232a3.783 3.783 0 0 1-.792-.144c-.25-.075-.499-.155-.744-.24v-.464h3.92v.464a2.14 2.14 0 0 1-.384.208c-.15.064-.352.123-.608.176v3.664zm5.472.768h-3.552v-.4c.352-.17.704-.299 1.056-.384V16.088l-1.216-.128v-.416c.277-.128.624-.24 1.04-.336.416-.096.821-.176 1.216-.24h.4v11.248c.352.085.704.213 1.056.384v.4zm1.264-4c0-.672.088-1.267.264-1.784.176-.517.43-.955.76-1.312.33-.357.728-.63 1.192-.816.464-.187.979-.28 1.544-.28.661 0 1.232.101 1.712.304.48.203.872.488 1.176.856.304.368.528.808.672 1.32.144.512.216 1.083.216 1.712 0 1.344-.341 2.379-1.024 3.104-.683.725-1.6 1.088-2.752 1.088-.64 0-1.195-.099-1.664-.296a3.035 3.035 0 0 1-1.168-.848 3.667 3.667 0 0 1-.696-1.328A5.99 5.99 0 0 1 64.48 23zm1.536 0c0 .48.045.933.136 1.36.09.427.235.797.432 1.112.197.315.456.563.776.744.32.181.704.272 1.152.272.576 0 1.048-.283 1.416-.848.368-.565.552-1.445.552-2.64a6.5 6.5 0 0 0-.136-1.368 3.529 3.529 0 0 0-.424-1.104 2.184 2.184 0 0 0-.736-.744c-.299-.181-.656-.272-1.072-.272-.63 0-1.136.283-1.52.848-.384.565-.576 1.445-.576 2.64zm7.888-6.912l-1.216-.128v-.416c.33-.139.701-.25 1.112-.336.41-.085.792-.165 1.144-.24h.4v5.616h.032c.181-.544.488-.976.92-1.296.432-.32.91-.48 1.432-.48.97 0 1.715.33 2.232.992.517.661.776 1.68.776 3.056 0 1.408-.355 2.475-1.064 3.2-.71.725-1.73 1.088-3.064 1.088-.267 0-.533-.019-.8-.056a10.412 10.412 0 0 1-.768-.136 4.705 4.705 0 0 1-.664-.192 2.63 2.63 0 0 1-.472-.224V16.088zm3.392 3.712c-.512 0-.928.173-1.248.52-.32.347-.555.787-.704 1.32v4.464c.192.107.427.19.704.248.277.059.57.088.88.088.704 0 1.259-.307 1.664-.92s.608-1.501.608-2.664c0-.416-.035-.81-.104-1.184a3.187 3.187 0 0 0-.336-.976 1.859 1.859 0 0 0-.592-.656c-.24-.16-.53-.24-.872-.24zm10.656 5.104c0 .235.005.437.016.608l.032.544 1.104.16v.336a6.912 6.912 0 0 1-1.824.608h-.4a2.459 2.459 0 0 1-.192-.808 23.048 23.048 0 0 1-.048-.968h-.08c-.043.213-.125.43-.248.648a2.177 2.177 0 0 1-.48.584c-.197.17-.43.31-.696.416a2.44 2.44 0 0 1-.912.16c-.65 0-1.181-.197-1.592-.592-.41-.395-.616-.912-.616-1.552 0-.49.099-.893.296-1.208.197-.315.488-.563.872-.744.384-.181.859-.312 1.424-.392.565-.08 1.221-.141 1.968-.184a9.19 9.19 0 0 0 .04-1.24 2.977 2.977 0 0 0-.176-.944 1.32 1.32 0 0 0-.448-.608c-.197-.144-.456-.216-.776-.216-.15 0-.317.008-.504.024a1.86 1.86 0 0 0-.552.136l-.752 1.92h-.416c-.107-.32-.2-.65-.28-.992a6.149 6.149 0 0 1-.152-1.008 5.408 5.408 0 0 1 1.352-.576 6.145 6.145 0 0 1 1.656-.208c.544 0 .979.077 1.304.232.325.155.573.355.744.6.17.245.283.517.336.816.053.299.08.597.08.896 0 .64-.013 1.256-.04 1.848-.027.592-.04 1.16-.04 1.704zM84.864 26.2c.267 0 .501-.053.704-.16.203-.107.373-.235.512-.384a2.325 2.325 0 0 0 .512-.848v-1.68c-.619 0-1.125.032-1.52.096s-.704.165-.928.304a1.108 1.108 0 0 0-.464.52 1.863 1.863 0 0 0-.128.712c0 .459.117.813.352 1.064.235.25.555.376.96.376zm8.816.8h-3.552v-.4c.352-.17.704-.299 1.056-.384V16.088l-1.216-.128v-.416c.277-.128.624-.24 1.04-.336.416-.096.821-.176 1.216-.24h.4v11.248c.352.085.704.213 1.056.384v.4zm6.896-1.104c.128.128.293.237.496.328.203.09.507.136.912.136.341 0 .661-.045.96-.136.299-.09.557-.224.776-.4a1.856 1.856 0 0 0 .712-1.496c0-.427-.13-.784-.392-1.072a3.99 3.99 0 0 0-.976-.768c-.39-.224-.813-.443-1.272-.656a7.04 7.04 0 0 1-1.272-.76 4.002 4.002 0 0 1-.976-1.056c-.261-.41-.392-.925-.392-1.544 0-.448.08-.848.24-1.2.16-.352.387-.65.68-.896a3.145 3.145 0 0 1 1.048-.568c.405-.133.859-.2 1.36-.2.65 0 1.245.05 1.784.152.539.101.963.227 1.272.376 0 .181-.013.392-.04.632a21.982 21.982 0 0 1-.344 2.12h-.416l-.64-2.192a2.808 2.808 0 0 0-.728-.192 6.507 6.507 0 0 0-.936-.064c-.544 0-.981.152-1.312.456-.33.304-.496.728-.496 1.272 0 .437.13.805.392 1.104.261.299.59.565.984.8.395.235.819.461 1.272.68.453.219.877.472 1.272.76.395.288.723.63.984 1.024.261.395.392.885.392 1.472 0 .48-.088.917-.264 1.312-.176.395-.43.73-.76 1.008-.33.277-.736.49-1.216.64-.48.15-1.024.224-1.632.224-.672 0-1.275-.08-1.808-.24-.533-.16-.912-.33-1.136-.512.01-.181.03-.4.056-.656a24.483 24.483 0 0 1 .216-1.584c.043-.256.085-.475.128-.656h.416l.656 2.352zM110.8 30.2h-3.552v-.4a5.78 5.78 0 0 1 1.056-.384v-9.488l-1.056-.128v-.416c.341-.15.69-.27 1.048-.36.357-.09.707-.163 1.048-.216h.4V20.6h.016c.213-.544.512-.979.896-1.304.384-.325.885-.488 1.504-.488.95 0 1.685.315 2.208.944.523.63.784 1.653.784 3.072 0 .672-.088 1.28-.264 1.824a3.885 3.885 0 0 1-.752 1.376c-.325.373-.72.661-1.184.864a3.817 3.817 0 0 1-1.544.304c-.395 0-.704-.024-.928-.072a3.856 3.856 0 0 1-.736-.248v2.544a2.542 2.542 0 0 1 1.056.384v.4zm.848-10.4c-.523 0-.939.165-1.248.496-.31.33-.528.784-.656 1.36v4.48c.192.117.408.205.648.264.24.059.552.088.936.088.352 0 .67-.09.952-.272.283-.181.523-.437.72-.768.197-.33.35-.717.456-1.16.107-.443.16-.93.16-1.464 0-.437-.035-.84-.104-1.208a3.086 3.086 0 0 0-.336-.96 1.69 1.69 0 0 0-.608-.632c-.25-.15-.557-.224-.92-.224zm4.816 3.2c0-.672.088-1.267.264-1.784.176-.517.43-.955.76-1.312.33-.357.728-.63 1.192-.816.464-.187.979-.28 1.544-.28.661 0 1.232.101 1.712.304.48.203.872.488 1.176.856.304.368.528.808.672 1.32.144.512.216 1.083.216 1.712 0 1.344-.341 2.379-1.024 3.104-.683.725-1.6 1.088-2.752 1.088-.64 0-1.195-.099-1.664-.296a3.035 3.035 0 0 1-1.168-.848 3.667 3.667 0 0 1-.696-1.328 5.99 5.99 0 0 1-.232-1.72zM118 23c0 .48.045.933.136 1.36.09.427.235.797.432 1.112.197.315.456.563.776.744.32.181.704.272 1.152.272.576 0 1.048-.283 1.416-.848.368-.565.552-1.445.552-2.64a6.5 6.5 0 0 0-.136-1.368 3.529 3.529 0 0 0-.424-1.104 2.184 2.184 0 0 0-.736-.744c-.299-.181-.656-.272-1.072-.272-.63 0-1.136.283-1.52.848-.384.565-.576 1.445-.576 2.64zm6.896-3.616a4.212 4.212 0 0 1 1.28-.544v-1.36c.139-.107.301-.21.488-.312.187-.101.37-.19.552-.264h.4V19h2.4v.8h-2.4v4.64c0 .64.101 1.093.304 1.36.203.267.507.4.912.4.192 0 .432-.013.72-.04.288-.027.533-.077.736-.152l.112.24a2.012 2.012 0 0 1-.36.304c-.155.107-.33.208-.528.304a3.71 3.71 0 0 1-.648.24 2.724 2.724 0 0 1-.72.096c-.64 0-1.128-.181-1.464-.544-.336-.363-.504-.95-.504-1.76V19.8h-1.28v-.416zM134.8 27h-3.552v-.4c.352-.17.704-.299 1.056-.384V16.088l-1.216-.128v-.416c.277-.128.624-.24 1.04-.336.416-.096.821-.176 1.216-.24h.4v11.248c.352.085.704.213 1.056.384v.4zm4.816 0h-3.552v-.4c.16-.085.325-.157.496-.216.17-.059.357-.115.56-.168v-6.288l-1.056-.128v-.416c.31-.128.645-.24 1.008-.336.363-.096.725-.176 1.088-.24h.4v7.408c.213.053.405.11.576.168.17.059.33.13.48.216v.4zm-2.8-10.72c0-.288.093-.517.28-.688.187-.17.435-.256.744-.256.31 0 .555.085.736.256.181.17.272.4.272.688 0 .288-.09.515-.272.68-.181.165-.427.248-.736.248-.31 0-.557-.083-.744-.248-.187-.165-.28-.392-.28-.68zm7.36 2.528c.576 0 1.061.056 1.456.168.395.112.725.285.992.52a6.757 6.757 0 0 1 1.968-.928c.085.117.147.261.184.432.037.17.056.33.056.48l-.208.384h-1.68c.267.384.4.89.4 1.52 0 .768-.27 1.392-.808 1.872-.539.48-1.325.72-2.36.72a6.205 6.205 0 0 1-.928-.064c-.053.096-.115.203-.184.32a.713.713 0 0 0-.104.368c0 .213.123.381.368.504s.552.232.92.328a50.1 50.1 0 0 0 1.2.296c.432.101.835.24 1.208.416s.685.405.936.688c.25.283.381.648.392 1.096.01.384-.077.73-.264 1.04-.187.31-.445.568-.776.776a3.98 3.98 0 0 1-1.192.48 6.51 6.51 0 0 1-1.528.168c-1.163 0-2.04-.197-2.632-.592-.592-.395-.888-.89-.888-1.488 0-.288.045-.539.136-.752.09-.213.221-.4.392-.56.17-.16.384-.301.64-.424a7.06 7.06 0 0 1 .88-.344 1.611 1.611 0 0 1-.584-.44 1.03 1.03 0 0 1-.232-.68c0-.245.104-.488.312-.728.208-.24.419-.43.632-.568-.608-.16-1.075-.464-1.4-.912a2.523 2.523 0 0 1-.488-1.52c0-.363.07-.701.208-1.016a2.35 2.35 0 0 1 .608-.824c.267-.235.597-.416.992-.544a4.466 4.466 0 0 1 1.376-.192zm2.368 9.488c0-.341-.115-.613-.344-.816a2.719 2.719 0 0 0-.856-.496 7.894 7.894 0 0 0-1.104-.32 12.718 12.718 0 0 1-1.104-.288c-.405.245-.672.504-.8.776a1.952 1.952 0 0 0-.192.84c0 .565.203.99.608 1.272.405.283.992.424 1.76.424.395 0 .723-.037.984-.112a1.79 1.79 0 0 0 .624-.296c.155-.123.264-.27.328-.44.064-.17.096-.352.096-.544zm-4.112-6.912c0 .256.03.499.088.728.059.23.155.43.288.6.133.17.312.307.536.408.224.101.501.152.832.152.619 0 1.061-.181 1.328-.544.267-.363.4-.81.4-1.344 0-.576-.13-1.032-.392-1.368-.261-.336-.707-.504-1.336-.504-.65 0-1.104.163-1.36.488-.256.325-.384.787-.384 1.384zM157.76 27h-3.456v-.4a5.27 5.27 0 0 1 .96-.384v-3.744c0-.832-.117-1.485-.352-1.96-.235-.475-.661-.712-1.28-.712-.277 0-.528.05-.752.152a2.422 2.422 0 0 0-1.072.944 2.591 2.591 0 0 0-.288.648v4.672c.17.043.333.09.488.144.155.053.307.133.456.24v.4h-3.44v-.4c.33-.17.683-.299 1.056-.384V16.088l-1.216-.128v-.416c.31-.128.67-.24 1.08-.336.41-.096.803-.176 1.176-.24h.4v5.648h.016c.224-.501.547-.928.968-1.28.421-.352.93-.528 1.528-.528.427 0 .808.05 1.144.152.336.101.616.28.84.536.224.256.395.6.512 1.032.117.432.176.979.176 1.64v4.048c.181.043.363.09.544.144.181.053.352.133.512.24v.4zm.512-7.616a4.212 4.212 0 0 1 1.28-.544v-1.36c.139-.107.301-.21.488-.312.187-.101.37-.19.552-.264h.4V19h2.4v.8h-2.4v4.64c0 .64.101 1.093.304 1.36.203.267.507.4.912.4.192 0 .432-.013.72-.04.288-.027.533-.077.736-.152l.112.24a2.012 2.012 0 0 1-.36.304c-.155.107-.33.208-.528.304a3.71 3.71 0 0 1-.648.24 2.724 2.724 0 0 1-.72.096c-.64 0-1.128-.181-1.464-.544-.336-.363-.504-.95-.504-1.76V19.8h-1.28v-.416z"/>
        <g>
            <mask id="b" fill="#fff">
                <use xlink:href="#a"/>
            </mask>
            <use fill="#39BCDC" xlink:href="#a"/>
            <path stroke="#FFF" stroke-opacity=".547" stroke-width="4.977" d="M20.803 29.368a9.08 9.08 0 0 0 7.374 3.745c4.997 0 9.047-3.988 9.047-8.909 0-4.92-4.05-8.909-9.047-8.909-4.997 0-9.048 3.989-9.048 8.91" mask="url(#b)" transform="rotate(-5 28.177 24.204)"/>
            <path stroke="#FFF" stroke-width="4.977" d="M29.58 4.193c1.717 3.785-.007 8.225-3.851 9.916-3.845 1.691-8.354-.007-10.07-3.793-1.718-3.785.006-8.225 3.85-9.916 3.845-1.691 8.354.007 10.071 3.793z" mask="url(#b)"/>
            <path fill="#FFF" d="M26.09 1.154l.703 1.6c2.526-.82 1.932.477 3.751 1.064l10.281-4.857-1.391-3.288-13.343 5.48z" mask="url(#b)"/>
        </g>
    </g>
</svg>
